<svg width="84" height="29" viewBox="0 0 84 29" fill="none" xmlns="http://www.w3.org/2000/svg">
<g clip-path="url(#clip0_477_4289)">
<path d="M46.9386 24.3721C49.5037 24.7252 51.0959 24.2544 52.3047 23.048C53.0713 22.2829 53.661 21.4002 54.1622 20.4585C56.2261 16.6627 61.2384 7.51147 61.2384 7.51147H57.6413L53.8968 15.0149L52.7175 7.51147H48.8846V7.68802C48.8846 7.68802 50.1818 14.5441 50.8305 18.0751C50.9189 18.6048 51.0369 19.9583 50.0934 20.8117C49.5627 21.3119 48.7961 21.6944 47.4693 21.4884L46.9386 24.3721ZM44.0787 7.51147L40.5995 15.3974L40.5111 15.368L40.0393 7.71745H36.2359L32.5504 15.3974L32.4619 15.3386L32.3145 7.51147H28.688L29.3956 20.076H33.317L37.1204 11.8958H37.2089L37.7986 20.076H41.7494L47.4693 7.51147H44.0787ZM65.0123 20.076H61.2089C62.0639 15.8388 62.86 11.7487 63.715 7.51147H66.6634V9.83606C67.0467 8.89445 67.6069 7.98227 68.5209 7.59975C69.4054 7.21722 70.7912 7.24664 72.2064 7.6586C71.6462 8.74733 71.2334 9.68893 70.6143 10.8659C70.0836 10.7482 69.5823 10.6305 69.0811 10.5717C67.9607 10.454 67.1646 10.8954 66.7814 11.9547C66.516 12.6903 66.3391 13.4848 66.1917 14.2498C65.7789 16.1919 65.4251 18.134 65.0123 20.076ZM77.1892 10.5128C77.7199 9.86548 78.7224 9.48296 79.43 9.71836C80.3145 9.98319 80.6094 10.9836 79.9902 11.6604C79.7838 11.8958 79.489 12.0724 79.1941 12.1901C78.2801 12.5432 77.3366 12.5137 76.3342 12.3372C76.4816 11.631 76.747 11.0425 77.1892 10.5128ZM82.0541 16.9569H81.9361C80.4914 17.516 78.8698 17.6632 77.7494 17.3395C76.5111 16.9864 75.8035 15.9271 76.0393 14.7206C79.6954 15.0149 81.258 14.3381 82.1131 13.8379C84.3833 12.4843 84.9435 8.86503 81.9951 7.80572C79.4005 6.86412 75.774 7.30549 74.0639 9.36526C72.5013 11.2485 72.059 13.3082 72.2949 15.6328C72.4718 17.3689 73.6511 19.8406 77.543 20.2526C79.9018 20.488 81.4054 19.87 81.5234 19.8406L82.0541 16.9569Z" fill="white"/>
<path d="M14.2999 14.5146H22.9387L18.2802 25.9022C17.6316 27.4911 16.0984 28.521 14.3883 28.521H5.74951L10.408 17.1335C11.0566 15.5151 12.5898 14.5146 14.2999 14.5146Z" fill="#94C5FF"/>
<path d="M22.9386 14.5146L17.6905 21.1647C16.8944 22.224 15.6856 22.9008 14.2703 22.9008H7.99023L10.3784 17.1041C11.0271 15.5445 12.5603 14.5146 14.2703 14.5146H22.9386Z" fill="#1A32AF"/>
<path d="M11.4105 7.51147H20.0493L15.3908 18.899C14.7422 20.488 13.209 21.5179 11.4989 21.5179H2.86011L7.51859 10.1303C8.16723 8.54135 9.72989 7.51147 11.4105 7.51147Z" fill="#0092FF"/>
<path d="M20.0785 7.51147L14.8304 14.1616C14.0343 15.2209 12.8255 15.8977 11.4102 15.8977H5.13013L7.51833 10.1009C8.16698 8.54136 9.70015 7.51147 11.4102 7.51147H20.0785Z" fill="#1A32AF"/>
<path d="M8.55037 0.509521H17.1892L12.5307 11.8971C11.8821 13.486 10.3489 14.5159 8.63882 14.5159H0L4.65848 3.12836C5.30713 1.5394 6.8403 0.509521 8.55037 0.509521Z" fill="#0055FF"/>
</g>
<defs>
<clipPath id="clip0_477_4289">
<rect width="84" height="28" fill="white" transform="translate(0 0.5)"/>
</clipPath>
</defs>
</svg>
