<svg width="24" height="24" viewBox="0 0 24 24" fill="none" xmlns="http://www.w3.org/2000/svg">
<path d="M20.317 4.25864C18.7873 3.55705 17.147 3.04015 15.4319 2.7441C15.4007 2.73839 15.3695 2.75267 15.3534 2.78122C15.1424 3.15628 14.9087 3.64558 14.7451 4.03016C12.9004 3.75411 11.0652 3.75411 9.25832 4.03016C9.09465 3.63703 8.85248 3.15628 8.64057 2.78122C8.62449 2.75362 8.59328 2.73934 8.56205 2.7441C6.84791 3.03921 5.20756 3.55611 3.67693 4.25864C3.66368 4.26435 3.65233 4.27388 3.64479 4.28625C0.533392 8.93269 -0.31895 13.4649 0.0991801 17.941C0.101072 17.9629 0.11337 17.9838 0.130398 17.9971C2.18321 19.504 4.17171 20.4189 6.12328 21.0252C6.15451 21.0348 6.18761 21.0233 6.20748 20.9976C6.66913 20.3675 7.08064 19.703 7.43348 19.0043C7.4543 18.9633 7.43442 18.9148 7.39186 18.8986C6.73913 18.6511 6.1176 18.3493 5.51973 18.0066C5.47244 17.979 5.46865 17.9114 5.51216 17.8791C5.63797 17.7848 5.76382 17.6868 5.88396 17.5878C5.90569 17.5697 5.93598 17.5659 5.96153 17.5773C9.88928 19.3698 14.1415 19.3698 18.023 17.5773C18.0485 17.5649 18.0788 17.5687 18.1015 17.5868C18.2216 17.6858 18.3475 17.7848 18.4742 17.8791C18.5177 17.9114 18.5149 17.979 18.4676 18.0066C17.8697 18.356 17.2482 18.6511 16.5945 18.8977C16.552 18.9138 16.533 18.9633 16.5538 19.0043C16.9143 19.702 17.3258 20.3665 17.7789 20.9967C17.7978 21.0233 17.8319 21.0348 17.8631 21.0252C19.8241 20.4189 21.8126 19.504 23.8654 17.9971C23.8834 17.9838 23.8948 17.9638 23.8967 17.9419C24.3971 12.7671 23.0585 8.27205 20.3482 4.2872C20.3416 4.27388 20.3303 4.26435 20.317 4.25864ZM8.02002 15.2155C6.8375 15.2155 5.86313 14.1303 5.86313 12.7976C5.86313 11.4649 6.8186 10.3797 8.02002 10.3797C9.23087 10.3797 10.1958 11.4744 10.1769 12.7976C10.1769 14.1303 9.22141 15.2155 8.02002 15.2155ZM15.9947 15.2155C14.8123 15.2155 13.8379 14.1303 13.8379 12.7976C13.8379 11.4649 14.7933 10.3797 15.9947 10.3797C17.2056 10.3797 18.1705 11.4744 18.1516 12.7976C18.1516 14.1303 17.2056 15.2155 15.9947 15.2155Z" fill="white"/>
</svg>
