<svg width="16" height="17" viewBox="0 0 16 17" fill="none" xmlns="http://www.w3.org/2000/svg">
<path opacity="0.4" d="M15.875 13.9423L12.3417 10.3641C12.9167 9.36019 13.2167 8.24382 13.2167 7.11911C13.2167 3.47006 10.25 0.5 6.60833 0.5C2.96667 0.5 0 3.47006 0 7.11911C0 10.7682 2.96667 13.7382 6.60833 13.7382C7.77083 13.7382 8.92083 13.4175 9.94583 12.8051L13.4625 16.3709C13.5417 16.45 13.6542 16.5 13.7667 16.5C13.8792 16.5 13.9917 16.4542 14.0708 16.3709L15.875 14.5463C16.0417 14.3756 16.0417 14.109 15.875 13.9423ZM6.60833 3.0785C8.83333 3.0785 10.6417 4.89052 10.6417 7.11911C10.6417 9.3477 8.83333 11.1597 6.60833 11.1597C4.38333 11.1597 2.575 9.3477 2.575 7.11911C2.575 4.89052 4.38333 3.0785 6.60833 3.0785Z" fill="white"/>
</svg>
