<svg width="172" height="38" fill="none" xmlns="http://www.w3.org/2000/svg"><g clip-path="url(#a)"><path fill-rule="evenodd" clip-rule="evenodd" d="M12.568 18.778 18.951 8.75l6.382 10.03-6.382 3.646-6.383-3.647Z" fill="#fff"/><path fill-rule="evenodd" clip-rule="evenodd" d="m12.568 20.491 6.383 3.647 6.382-3.647-6.382 8.662-6.383-8.662Z" fill="#fff"/><path fill-rule="evenodd" clip-rule="evenodd" d="M21.853 4.68c-.99.463-1.956.98-2.89 1.548a28.274 28.274 0 0 0-2.916-1.555 33.64 33.64 0 0 1 2.894-1.75c.975.524 1.946 1.11 2.912 1.757Z" fill="#5F9A34"/><path fill-rule="evenodd" clip-rule="evenodd" d="M35.481 2.42c-3.503-3.502-9.888-3.084-16.54.503a34.66 34.66 0 0 1 2.912 1.758c2.576-1.191 5.03-1.83 7.107-1.83 1.858 0 3.417.51 4.498 1.59 2.293 2.294 2.02 6.732-.237 11.608a35.161 35.161 0 0 1 1.758 2.912c3.587-6.652 4.005-13.037.502-16.54Z" fill="#FFC750"/><path fill-rule="evenodd" clip-rule="evenodd" d="M21.853 4.68c-.99.463-1.956.98-2.89 1.548A39.074 39.074 0 0 1 31.666 18.95a30.507 30.507 0 0 0 1.554-2.903 41.896 41.896 0 0 0-5.143-6.224 41.51 41.51 0 0 0-6.225-5.144Z" fill="#FFC750"/><path fill-rule="evenodd" clip-rule="evenodd" d="M34.978 18.961a34.43 34.43 0 0 1-1.755 2.9 30.125 30.125 0 0 0-1.556-2.91 30.542 30.542 0 0 0 1.554-2.902 35.117 35.117 0 0 1 1.757 2.912Z" fill="#FF512F"/><path fill-rule="evenodd" clip-rule="evenodd" d="M33.224 21.861a30.125 30.125 0 0 0-1.557-2.91 37.883 37.883 0 0 1-5.612 7.105 37.842 37.842 0 0 1-7.093 5.617c.934.57 1.9 1.086 2.891 1.547a41.507 41.507 0 0 0 6.225-5.144 41.784 41.784 0 0 0 5.146-6.215Z" fill="#FF6895"/><path fill-rule="evenodd" clip-rule="evenodd" d="M37.028 23.758a27.66 27.66 0 0 0-2.05-4.797 34.461 34.461 0 0 1-1.754 2.9c2.255 4.874 2.527 9.307.234 11.598-2.293 2.293-6.729 2.018-11.605-.239a33.479 33.479 0 0 1-2.913 1.758c3.542 1.91 7.007 2.922 10.003 2.922 2.63 0 4.9-.78 6.538-2.418 2.563-2.563 3.111-6.726 1.547-11.724Z" fill="#FF6895"/><path fill-rule="evenodd" clip-rule="evenodd" d="M21.853 33.22a33.477 33.477 0 0 1-2.913 1.758 34.258 34.258 0 0 1-2.893-1.75 28.255 28.255 0 0 0 2.915-1.555c.934.57 1.9 1.086 2.891 1.547Z" fill="#552990"/><path fill-rule="evenodd" clip-rule="evenodd" d="M13.288 34.298c-3.931 1.232-7.074.933-8.845-.839-1.772-1.772-2.071-4.914-.84-8.845.298-.941.655-1.862 1.07-2.757a34.893 34.893 0 0 1-1.751-2.894 27.633 27.633 0 0 0-2.047 4.795c-1.566 4.998-1.016 9.16 1.545 11.724 1.606 1.605 3.84 2.42 6.513 2.42a17.513 17.513 0 0 0 5.208-.875 27.692 27.692 0 0 0 4.8-2.05 34.274 34.274 0 0 1-2.894-1.75c-.896.416-1.817.774-2.76 1.071Z" fill="#5666F6"/><path fill-rule="evenodd" clip-rule="evenodd" d="M16.047 33.227a28.26 28.26 0 0 0 2.915-1.554 37.803 37.803 0 0 1-7.116-5.617 37.802 37.802 0 0 1-5.617-7.117 28.798 28.798 0 0 0-1.557 2.918 41.879 41.879 0 0 0 5.153 6.22 41.463 41.463 0 0 0 6.222 5.15Z" fill="#5666F6"/><path fill-rule="evenodd" clip-rule="evenodd" d="M6.229 18.94a28.82 28.82 0 0 0-1.557 2.917 34.904 34.904 0 0 1-1.75-2.893 34.296 34.296 0 0 1 1.76-2.915c.46.992.977 1.957 1.547 2.89Z" fill="#204FA0"/><path fill-rule="evenodd" clip-rule="evenodd" d="M4.443 4.441c1.772-1.772 4.914-2.07 8.846-.837.941.298 1.863.655 2.76 1.07a33.64 33.64 0 0 1 2.893-1.751 27.504 27.504 0 0 0-4.8-2.05C9.147-.69 4.984-.142 2.42 2.422.782 4.059.003 6.328.003 8.958c0 2.997 1.011 6.464 2.92 10.005a34.3 34.3 0 0 1 1.76-2.915c-2.258-4.875-2.533-9.313-.24-11.607Z" fill="#5FC5A6"/><path fill-rule="evenodd" clip-rule="evenodd" d="M16.047 4.673A42.855 42.855 0 0 0 4.682 16.05c.46.992.977 1.957 1.547 2.89A39.034 39.034 0 0 1 18.962 6.228a28.274 28.274 0 0 0-2.915-1.555Z" fill="#5FC5A6"/><path d="M167.137 26.687v1.584a1.767 1.767 0 0 1-.912.244 2.822 2.822 0 0 1-2.795-2.102 6.281 6.281 0 0 1-7.635 1.292 6.317 6.317 0 0 1-3.107-7.112 6.297 6.297 0 0 1 6.124-4.751 6.261 6.261 0 0 1 4.436 1.828v-1.584h1.884v9.017c0 1.127.577 1.584 1.245 1.584h.76Zm-3.889-4.509a4.442 4.442 0 0 0-4.436-4.447 4.442 4.442 0 0 0-4.435 4.447 4.441 4.441 0 0 0 4.435 4.448 4.447 4.447 0 0 0 4.436-4.448Zm6.264-12.277h1.979v18.614h-1.979V9.901Zm-19.79 12.195c.001 2.589-1.532 4.924-3.888 5.923a6.267 6.267 0 0 1-6.89-1.355v1.604h-1.888V9.505h1.888v8.024a6.267 6.267 0 0 1 6.89-1.355c2.356.998 3.889 3.334 3.888 5.922Zm-1.888 0c0-2.488-1.99-4.505-4.445-4.505s-4.445 2.017-4.445 4.505c0 2.489 1.99 4.506 4.445 4.506a4.4 4.4 0 0 0 3.147-1.316 4.52 4.52 0 0 0 1.298-3.19Zm-27.005.083c0-3.5 2.835-6.337 6.332-6.337a6.335 6.335 0 0 1 6.333 6.337 6.335 6.335 0 0 1-10.812 4.482 6.33 6.33 0 0 1-1.853-4.482Zm10.777 0a4.446 4.446 0 0 0-4.445-4.448 4.446 4.446 0 0 0-4.445 4.448 4.446 4.446 0 0 0 4.445 4.448 4.451 4.451 0 0 0 4.445-4.448Zm-20.277-3.785v.552c.032 4.778-3.413 8.838-8.047 9.482-4.634.644-9.015-2.328-10.233-6.942-1.217-4.614 1.107-9.435 5.429-11.26 4.322-1.824 9.298-.085 11.622 4.061l-1.65.95c-1.756-3.17-5.488-4.59-8.845-3.366-3.358 1.223-5.368 4.737-4.764 8.327.603 3.59 3.646 6.217 7.21 6.225 3.565.009 6.619-2.603 7.239-6.19h-7.227v-1.839h9.266Zm3.958-8.493h1.979v18.614h-1.979V9.901Zm-25.726 0v18.614h-3.989v-7.507h-7.428v7.508h-4.02V9.9h4.02v7.477h7.428V9.9h3.989Zm-17.02 3.63h-4.544v14.984h-3.942V13.531H59.48v-3.63h13.061v3.63ZM51.263 13.5v3.909h6.017v3.599h-6.017v3.909h7.03v3.598H47.21V9.901h11.083V13.5h-7.03Z" fill="#fff"/></g><defs><clipPath id="a"><path fill="#fff" d="M0 0h172v38H0z"/></clipPath></defs></svg>